<svg xmlns="http://www.w3.org/2000/svg" width="32" height="32" viewBox="0 0 32 32"><g transform="translate(0 -1020.362)"><path fill="#2b4255" fill-rule="evenodd" d="M6.4804688 1045.4141a.50005.50005 0 0 0-.5.5l0 2.0039 1 0 0-1.5039 1.5039062 0 0-1-2.0039062 0zM25 1024.8066l0 1.5039-1.505859 0 0 1 2.005859 0a.50005.50005 0 0 0 .5-.5l0-2.0039-1 0z" color="#000" font-family="sans-serif" font-weight="400" overflow="visible" white-space="normal" style="line-height:normal;text-indent:0;text-align:start;text-decoration-line:none;text-decoration-style:solid;text-decoration-color:#000;text-transform:none;block-progression:tb;isolation:auto;mix-blend-mode:normal"/><path fill="#2b4255" d="M16.882812 1022.3926c-3.2817-.2151-6.638386.7228-9.4179682 2.8554-5.5591587 4.2654-7.09734934 12.0005-3.59375 18.0684l.8652343-.5c-3.2565228-5.64-1.829264-12.8108 3.3378907-16.7754 5.1671602-3.9646 12.4610132-3.4859 17.0664062 1.1192l.707031-.7071c-2.477394-2.4772-5.683143-3.8454-8.964844-4.0605zM15.117188 1050.332c3.2817.2151 6.638386-.7228 9.417968-2.8554 5.559159-4.2654 7.09735-12.0005 3.59375-18.0684l-.865234.5c3.256523 5.64 1.829264 12.8108-3.337891 16.7754-5.16716 3.9646-12.461013 3.4859-17.066406-1.1191l-.7070312.707c2.4773946 2.4772 5.6831432 3.8454 8.9648442 4.0605z" color="#000" font-family="sans-serif" font-weight="400" overflow="visible" white-space="normal" style="line-height:normal;text-indent:0;text-align:start;text-decoration-line:none;text-decoration-style:solid;text-decoration-color:#000;text-transform:none;block-progression:tb;isolation:auto;mix-blend-mode:normal"/><path fill="#f05542" d="m 10.5,1033.4609 a 0.50005,0.50005 0 0 0 -0.5,0.5 l 0,9.9004 a 0.50005,0.50005 0 0 0 0.5,0.5 l 11.925781,0 a 0.50005,0.50005 0 0 0 0.5,-0.5 l 0,-1.2363 0,-1.4629 -1,0 0,1.4629 0,0.7363 -10.925781,0 0,-8.9004 10.925781,0 0,0.7383 0,1.2383 0,1.7246 1,0 0,-1.7246 0,-1.2383 0,-1.2383 a 0.50005,0.50005 0 0 0 -0.5,-0.5 l -11.925781,0 z m 11.425781,5.2012 0,1.5 1,0 0,-1.5 -1,0 z" color="#000" font-family="sans-serif" font-weight="400" overflow="visible" white-space="normal" style="line-height:normal;text-indent:0;text-align:start;text-decoration-line:none;text-decoration-style:solid;text-decoration-color:#000;text-transform:none;block-progression:tb;isolation:auto;mix-blend-mode:normal"/><path fill="#f05542" d="m 16.462891,1036.2539 c -0.927035,0 -1.693354,0.7593 -1.69336,1.6856 6e-6,0.9262 0.766325,1.6835 1.69336,1.6835 0.927034,0 1.693353,-0.7573 1.693359,-1.6835 -6e-6,-0.9263 -0.766325,-1.6856 -1.693359,-1.6856 z m 0,1 c 0.390183,0 0.693357,0.3033 0.693359,0.6856 -2e-6,0.3822 -0.303176,0.6835 -0.693359,0.6835 -0.390184,0 -0.693357,-0.3013 -0.69336,-0.6835 3e-6,-0.3823 0.303176,-0.6856 0.69336,-0.6856 z" color="#000" font-family="sans-serif" font-weight="400" overflow="visible" white-space="normal" style="line-height:normal;text-indent:0;text-align:start;text-decoration-line:none;text-decoration-style:solid;text-decoration-color:#000;text-transform:none;block-progression:tb;isolation:auto;mix-blend-mode:normal"/><path fill="#f05542" fill-rule="evenodd" d="m 15.962891,1039.0059 0,3.08 1,0 0,-3.08 -1,0 z" color="#000" font-family="sans-serif" font-weight="400" overflow="visible" white-space="normal" style="line-height:normal;text-indent:0;text-align:start;text-decoration-line:none;text-decoration-style:solid;text-decoration-color:#000;text-transform:none;block-progression:tb;isolation:auto;mix-blend-mode:normal"/><path fill="#f05542" d="m 16.462891,1027.9609 c -2.369509,0 -4.294922,1.9159 -4.294922,4.2793 l 0,1.7207 0,0.5 1,0 0,-0.5 0,-1.7207 c 0,-1.8246 1.45999,-3.2793 3.294922,-3.2793 1.834926,0 3.294921,1.4547 3.294921,3.2793 l 0,1.7207 0,0.5 1,0 0,-0.5 0,-1.7207 c 0,-2.3634 -1.925416,-4.2793 -4.294921,-4.2793 z" color="#000" font-family="sans-serif" font-weight="400" overflow="visible" white-space="normal" style="line-height:normal;text-indent:0;text-align:start;text-decoration-line:none;text-decoration-style:solid;text-decoration-color:#000;text-transform:none;block-progression:tb;isolation:auto;mix-blend-mode:normal"/></g></svg>