<svg xmlns="http://www.w3.org/2000/svg" width="32" height="32" viewBox="0 0 32 32"><g transform="translate(-177.524 -863.028)"><path style="line-height:normal;text-indent:0;text-align:start;text-decoration-line:none;text-decoration-style:solid;text-decoration-color:#000;text-transform:none;block-progression:tb;isolation:auto;mix-blend-mode:normal" fill="#2b4255" d="m 201.49805,864.69141 c -0.83122,0.22173 -1.60527,0.65941 -2.23438,1.28906 -1.21115,1.21148 -1.57812,2.88763 -1.27929,4.45117 l -4.71876,4.71875 a 0.50005,0.50005 0 1 0 0.70704,0.70703 l 4.85156,-4.85156 a 0.50005,0.50005 0 0 0 0.1289,-0.48047 c -0.35185,-1.33121 -0.0246,-2.79542 1.01758,-3.83789 0.74685,-0.74749 1.75645,-1.02021 2.78516,-1.0293 l -1.90234,1.9043 a 0.50005,0.50005 0 0 0 -0.1211,0.51172 l 0.79297,2.3789 a 0.50005,0.50005 0 0 0 0.31641,0.31641 l 2.38086,0.79297 a 0.50005,0.50005 0 0 0 0.51172,-0.12109 l 1.90234,-1.90235 c -0.009,1.0287 -0.28236,2.03824 -1.0293,2.78516 -1.0422,1.04158 -2.50515,1.36923 -3.83594,1.01758 a 0.50005,0.50005 0 0 0 -0.48242,0.1289 l -4.2207,4.22071 a 0.50005,0.50005 0 1 0 0.70703,0.70703 l 4.08789,-4.08789 c 1.5635,0.29862 3.24001,-0.0689 4.45117,-1.2793 1.2581,-1.25806 1.74714,-3.09497 1.28711,-4.8125 a 0.50005,0.50005 0 0 0 -0.83594,-0.22266 l -2.52148,2.51953 -1.84766,-0.61718 -0.61718,-1.84766 2.51953,-2.52148 a 0.50005,0.50005 0 0 0 -0.22266,-0.83594 c -0.85862,-0.23014 -1.7469,-0.22369 -2.57812,-0.002 z m -11.69336,14.11132 a 0.50005,0.50005 0 0 0 -0.34375,0.15039 l -4.78125,4.78321 c -1.56306,-0.298 -3.24052,0.0676 -4.45117,1.27734 -1.25807,1.25815 -1.74729,3.09484 -1.28711,4.8125 a 0.50005,0.50005 0 0 0 0.83789,0.22461 l 2.51953,-2.51953 1.84961,0.61523 0.61523,1.84961 -2.51953,2.51953 a 0.50005,0.50005 0 0 0 0.22461,0.8379 c 1.71796,0.46039 3.5515,-0.0318 4.81055,-1.28711 a 0.50005,0.50005 0 0 0 0.002,0 c 1.21073,-1.21095 1.57559,-2.88804 1.27734,-4.45118 l 4.10352,-4.10351 a 0.50005,0.50005 0 1 0 -0.70703,-0.70703 l -4.23633,4.23633 a 0.50005,0.50005 0 0 0 -0.12891,0.48046 c 0.35192,1.33131 0.0266,2.79552 -1.01562,3.8379 -0.7488,0.74659 -1.75997,1.02004 -2.78906,1.02929 l 1.90429,-1.90429 a 0.50005,0.50005 0 0 0 0.1211,-0.51172 l -0.79297,-2.37891 a 0.50005,0.50005 0 0 0 -0.31641,-0.31641 l -2.3789,-0.79296 a 0.50005,0.50005 0 0 0 -0.51172,0.12109 l -1.9043,1.9043 c 0.009,-1.02925 0.28241,-2.03952 1.0293,-2.78711 1.04207,-1.04128 2.50706,-1.36924 3.83789,-1.01758 a 0.50005,0.50005 0 0 0 0.48047,-0.12891 l 4.91406,-4.91601 a 0.50005,0.50005 0 0 0 -0.36328,-0.85743 z" color="#000" font-family="sans-serif" font-weight="400" overflow="visible" white-space="normal"/><path style="line-height:normal;text-indent:0;text-align:start;text-decoration-line:none;text-decoration-style:solid;text-decoration-color:#000;text-transform:none;block-progression:tb;isolation:auto;mix-blend-mode:normal" fill="#f05542" d="m 194.82617,875.53125 c -0.43312,10e-6 -0.86571,0.16454 -1.19336,0.49219 l -3.36133,3.36133 c -0.65529,0.65529 -0.65529,1.73142 0,2.38671 l 11.76368,11.76563 c 0.65529,0.6553 1.73337,0.65529 2.38867,0 l 3.36133,-3.36133 c 0.6553,-0.6553 0.65529,-1.73338 0,-2.38867 l -11.76368,-11.76367 c -0.32764,-0.32765 -0.76219,-0.4922 -1.19531,-0.49219 z m -0.48633,1.19922 c 0.27582,-0.27582 0.69884,-0.27577 0.97461,0 l 11.76367,11.76367 c 0.27578,0.27577 0.27582,0.69879 0,0.97461 l -3.36132,3.36133 c -0.27581,0.2758 -0.69688,0.27578 -0.97266,0 l -11.76562,-11.76563 c -0.27577,-0.27576 -0.27581,-0.69685 0,-0.97265 l 3.36132,-3.36133 z" color="#000" font-family="sans-serif" font-weight="400" overflow="visible" white-space="normal"/><path style="line-height:normal;text-indent:0;text-align:start;text-decoration-line:none;text-decoration-style:solid;text-decoration-color:#000;text-transform:none;block-progression:tb;isolation:auto;mix-blend-mode:normal" fill="#2b4255" fill-rule="evenodd" d="M194.33984 877.70312l-.70703.70704 11.76563 11.76562.70703-.70703-11.76563-11.76563zM192.66016 879.38477l-.70704.70703 11.76368 11.76367.70703-.70703-11.76367-11.76367z" color="#000" font-family="sans-serif" font-weight="400" overflow="visible" white-space="normal"/><path style="line-height:normal;text-indent:0;text-align:start;text-decoration-line:none;text-decoration-style:solid;text-decoration-color:#000;text-transform:none;block-progression:tb;isolation:auto;mix-blend-mode:normal" fill="#f05542" d="M192.67969 875.28125c-.42984 0-.8652.16598-1.19336.49414a.50005.50005 0 0 0 0 .002l-1.67969 1.68164c-.65367.65518-.65458 1.73017 0 2.38477l.35352.35352.70703-.70704-.35352-.35351c-.27604-.27605-.27603-.69663 0-.97266l1.67969-1.68164c.13738-.13738.30863-.20117.48633-.20117.17771 0 .35189.0648.48828.20117l.35351.35352.70704-.70703-.35352-.35352c-.32915-.32915-.76547-.49414-1.19531-.49414zM180.9707 864.53125a.50004997.50004997 0 0 0-.36328.14648l-1.67969 1.68165a.50004997.50004997 0 0 0-.0527.64453l2.09961 2.93945a.50004997.50004997 0 0 0 .33594.20508l1.4707.21094a.50004997.50004997 0 0 0 .42383-.14258l.63086-.62891.63086-.63086a.50004997.50004997 0 0 0 .14062-.42383l-.20898-1.4707a.50004997.50004997 0 0 0-.20508-.33594l-2.94141-2.10156a.50004997.50004997 0 0 0-.28125-.0937zm.0449 1.1543l2.42188 1.73047.14453 1.00976-.45312.45508-.45313.45312-1.01172-.14453-1.73047-2.42187 1.08203-1.08203z" color="#000" font-family="sans-serif" font-weight="400" overflow="visible" white-space="normal"/><path style="line-height:normal;text-indent:0;text-align:start;text-decoration-line:none;text-decoration-style:solid;text-decoration-color:#000;text-transform:none;block-progression:tb;isolation:auto;mix-blend-mode:normal" fill="#f05542" fill-rule="evenodd" d="m 183.74609,868.79102 -0.70703,0.70703 7.48438,7.48437 0.70898,-0.70703 -7.48633,-7.48437 z" color="#000" font-family="sans-serif" font-weight="400" overflow="visible" white-space="normal"/></g></svg>